<svg xmlns="http://www.w3.org/2000/svg" width="46" height="46" viewBox="0 0 48 48"><g><path fill="#4285F4" d="M24 9.5c3.54 0 6.73 1.22 9.24 3.23l6.91-6.91C36.13 2.36 30.45 0 24 0 14.82 0 6.73 5.08 2.69 12.44l8.06 6.26C12.6 13.13 17.87 9.5 24 9.5z"/><path fill="#34A853" d="M46.1 24.55c0-1.64-.15-3.22-.42-4.74H24v9.01h12.41c-.54 2.9-2.18 5.36-4.65 7.02l7.19 5.6C43.98 37.13 46.1 31.36 46.1 24.55z"/><path fill="#FBBC05" d="M10.75 28.7c-1.13-3.36-1.13-6.98 0-10.34l-8.06-6.26C.9 16.36 0 20.05 0 24s.9 7.64 2.69 11.3l8.06-6.26z"/><path fill="#EA4335" d="M24 48c6.45 0 12.13-2.13 16.55-5.82l-7.19-5.6c-2.01 1.35-4.59 2.15-7.36 2.15-6.13 0-11.4-3.63-13.25-8.85l-8.06 6.26C6.73 42.92 14.82 48 24 48z"/><path fill="none" d="M0 0h48v48H0z"/></g></svg>